<svg width="1512" height="168" viewBox="0 0 1512 168" fill="none" xmlns="http://www.w3.org/2000/svg">
<g clip-path="url(#clip0_123_33940)">
<g clip-path="url(#clip1_123_33940)">
<path d="M808.271 85.56C808.271 92.628 806.868 99.3768 804.332 105.523L705.899 100.523C704.483 95.7838 703.729 90.7724 703.729 85.56C703.729 56.6263 727.128 33.1768 756 33.1768C784.872 33.1768 808.271 56.6263 808.271 85.56Z" fill="#334156"/>
<path d="M804.332 105.523C804.332 105.523 804.32 105.547 804.32 105.558C771.203 104.235 738.285 102.604 705.946 100.701C705.934 100.642 705.911 100.583 705.899 100.523L804.332 105.523Z" fill="#334156"/>
<path d="M842.509 106.953C987.341 111.752 1132.69 110.499 1244.92 99.708V168H305.384C305.384 145.236 317.602 58.7659 338.525 62.5835C415.847 76.6958 535.498 89.638 668.146 98.3488L842.509 106.953Z" fill="#A3B4CC"/>
<path d="M1512 168H0V72.7242C0 72.7242 257.064 1.16991 400.362 74.8044C659.595 208.02 1064.12 137.518 1257.84 95.6064C1336.06 78.6811 1419.23 82.8651 1511.99 102.639" fill="#334156"/>
<path d="M206.408 41.9941C206.408 41.9941 215.466 24.7851 223.84 0C223.84 0 227.319 17.8354 244.597 41.7104L206.408 42.0059V41.9941Z" fill="#64758B"/>
<path d="M223.84 0C223.84 0 206.408 10.3419 174.34 6.96159C174.34 6.96159 169.634 24.5133 153.158 45.469L206.408 42.0059C206.408 42.0059 217.636 28.9574 223.84 0.0118193V0Z" fill="#334156"/>
<path d="M289.509 20.8023C289.509 20.8023 289.568 25.0099 287.504 28.6148C289.934 14.8453 276.323 10.4722 276.323 10.4722C276.323 10.4722 280.51 13.8289 275.769 20.1877C273.634 23.0479 272.608 25.5182 272.125 27.3738C271.771 28.7449 271.877 30.175 272.396 31.4633C269.636 28.6858 269.896 24.2653 269.896 24.2653C269.058 26.0973 268.138 28.6385 267.973 30.2223C267.195 37.8339 272.148 43.1172 279.767 42.9517C287.398 42.7744 293.436 36.4392 293.271 28.7921C293.201 25.79 291.196 23.0598 289.521 20.8377L289.509 20.8023Z" fill="#64758B"/>
<path d="M274.649 16.6064C274.649 16.6064 272.408 17.5047 271.688 19.384C271.299 20.3886 272.361 21.9133 272.361 21.9133C272.361 21.9133 272.396 19.4549 274.637 16.6064H274.649Z" fill="#64758B"/>
<path d="M288.672 15.1646C288.023 13.2144 285.57 11.6069 285.57 11.6069C287.386 15.07 287.681 18.0721 287.681 18.0721C287.681 18.0721 289.332 17.1147 288.672 15.1646Z" fill="#64758B"/>
<path d="M294.127 40.3557L265.721 39.3716L265.56 44.0374L293.966 45.0216L294.127 40.3557Z" fill="#334156"/>
<path d="M1258.42 39.7725L1244.73 88.8109L1278.67 86.4706L1258.42 39.7725Z" fill="#334156"/>
<path d="M1266.96 86.6559L1256.39 87.3833L1257.56 104.505L1268.13 103.777L1266.96 86.6559Z" fill="#334156"/>
<path d="M1258.39 39.4531L1244.7 81.3763L1277.69 79.107L1258.39 39.4531Z" fill="#334156"/>
<path d="M1258.42 39.7725L1245.18 72.6538L1276.01 70.5382L1258.42 39.7725Z" fill="#334156"/>
<path d="M1287.12 34.3467L1272.18 80.5839L1304.63 79.6856L1287.12 34.3467Z" fill="#334156"/>
<path d="M1293.46 78.6181L1283.35 78.9009L1283.81 95.2761L1293.91 94.9933L1293.46 78.6181Z" fill="#334156"/>
<path d="M1287.11 34.0396L1272.44 73.5043L1303.98 72.6179L1287.11 34.0396Z" fill="#334156"/>
<path d="M1287.12 34.3467L1273.23 65.1951L1302.71 64.3678L1287.12 34.3467Z" fill="#334156"/>
<path d="M1345.79 32.7866L1332.73 79.603L1365.12 77.3691L1345.79 32.7866Z" fill="#334156"/>
<path d="M1353.94 77.6075L1343.86 78.3018L1344.98 94.6448L1355.06 93.9506L1353.94 77.6075Z" fill="#334156"/>
<path d="M1345.77 32.4912L1332.71 72.5115L1364.18 70.3485L1345.77 32.4912Z" fill="#334156"/>
<path d="M1345.79 32.7866L1333.17 64.1906L1362.59 62.1577L1345.79 32.7866Z" fill="#334156"/>
<path d="M1370.12 30.5645L1353.89 77.8536H1386.36L1370.12 30.5645Z" fill="#334156"/>
<path d="M1375.18 76.8257H1365.07V93.7391H1375.18V76.8257Z" fill="#334156"/>
<path d="M1370.12 30.2573L1354.35 70.5494H1385.9L1370.12 30.2573Z" fill="#334156"/>
<path d="M1370.12 30.5645L1355.38 62.0039H1384.87L1370.12 30.5645Z" fill="#334156"/>
<path d="M1393.91 36.0728L1377.08 78.4687L1407.52 79.6034L1393.91 36.0728Z" fill="#334156"/>
<path d="M1397.02 78.2828L1387.54 77.9263L1386.97 93.2924L1396.44 93.6489L1397.02 78.2828Z" fill="#334156"/>
<path d="M1393.92 35.7891L1377.75 71.838L1407.34 72.949L1393.92 35.7891Z" fill="#334156"/>
<path d="M1393.91 36.0728L1379 64.12L1406.67 65.1483L1393.91 36.0728Z" fill="#334156"/>
<path d="M1486.93 36.8999L1466.6 81.0451L1498.93 83.9999L1486.93 36.8999Z" fill="#334156"/>
<path d="M1487.79 82.154L1477.72 81.2324L1476.24 97.5461L1486.3 98.4676L1487.79 82.154Z" fill="#334156"/>
<path d="M1486.95 36.6045L1467.7 74.0363L1499.12 76.9084L1486.95 36.6045Z" fill="#334156"/>
<path d="M1486.93 36.8999L1469.47 65.8809L1498.85 68.5757L1486.93 36.8999Z" fill="#334156"/>
<path d="M1457.26 43.1763L1439.76 81.1754L1467.6 83.7166L1457.26 43.1763Z" fill="#334156"/>
<path d="M1457.99 82.1055L1449.33 81.313L1448.05 95.355L1456.71 96.1475L1457.99 82.1055Z" fill="#334156"/>
<path d="M1457.29 42.916L1440.7 75.1473L1467.76 76.7666L1457.29 42.916Z" fill="#334156"/>
<path d="M1457.26 43.1763L1442.24 68.1269L1467.52 69.5925L1457.26 43.1763Z" fill="#334156"/>
<path d="M29.9336 1.07568L17.821 50.8942L53.2858 46.7101L29.9336 1.07568Z" fill="#334156"/>
<path d="M40.9702 47.5165L29.9365 48.8193L31.9432 65.8866L42.9769 64.5837L40.9702 47.5165Z" fill="#334156"/>
<path d="M29.8981 0.756348L17.4553 43.4596L51.9176 39.3937L29.8981 0.756348Z" fill="#334156"/>
<path d="M29.9335 1.07568L17.5615 34.7017L49.7829 30.8959L29.9335 1.07568Z" fill="#334156"/>
<path d="M63.6879 1.53662L53.1558 50.8942L83.8204 47.7975L63.6879 1.53662Z" fill="#334156"/>
<path d="M73.2557 48.2756L63.7153 49.2383L65.4334 66.3371L74.9738 65.3744L73.2557 48.2756Z" fill="#334156"/>
<path d="M63.6525 1.21729L52.8491 43.4596L82.6527 40.4575L63.6525 1.21729Z" fill="#334156"/>
<path d="M63.6878 1.53662L52.9434 34.7253L80.8127 31.9123L63.6878 1.53662Z" fill="#334156"/>
<path d="M116.909 37.2814L136.646 34.9509C140.136 34.5388 143.293 37.0461 143.703 40.5323L144.48 47.1409L112.117 50.9623L111.34 44.3537C110.928 40.8557 113.43 37.6922 116.909 37.2814Z" fill="#334156"/>
<path d="M285.016 34.3113C286.537 25.7068 278.033 22.9766 278.033 22.9766C278.033 22.9766 280.652 25.0804 277.68 29.0399C276.347 30.8246 275.698 32.3729 275.403 33.5312C275.179 34.3822 275.25 35.2805 275.569 36.0842C275.569 36.0842 276.441 38.649 280.227 38.2944C284.013 37.9398 285.004 34.3231 285.004 34.3231L285.016 34.3113Z" fill="#334156"/>
<path d="M766.001 125.852C764.787 124.836 754.655 122.425 754.62 121.148C754.561 118.902 800.876 118.855 800.664 116.94C800.511 115.605 769.929 113.796 770.094 112.024C770.318 109.565 822.46 105.724 845.753 107.048C847.369 107.142 833.452 106.067 804.556 104.967C796.064 104.648 775.024 103.478 752.014 102.355C734.712 101.504 715.039 100.653 705.816 100.192C691.84 99.495 671.837 98.5022 673.217 98.5849C703.387 100.511 725.229 106.303 725.111 108.099C725.017 109.506 697.619 108.348 697.572 109.364C697.525 110.369 731.327 113.761 731.303 115.64C731.28 117.177 709.543 116.822 709.496 118.099C709.449 119.529 736.339 121.077 736.292 122.803C736.268 123.902 721.373 123.441 723.012 125.084C724.168 126.242 769.009 128.322 766.013 125.828L766.001 125.852Z" fill="white"/>
</g>
</g>
<defs>
<clipPath id="clip0_123_33940">
<rect width="1512" height="168" fill="white"/>
</clipPath>
<clipPath id="clip1_123_33940">
<rect width="1512" height="168" fill="white"/>
</clipPath>
</defs>
</svg>
